/* XPM */
static char * mudmagic2_xpm[] = {
"16 16 104 2",
"  	c None",
". 	c #00FE00",
"+ 	c #00D100",
"@ 	c #005200",
"# 	c #007F00",
"$ 	c #00AE00",
"% 	c #003A00",
"& 	c #004700",
"* 	c #007800",
"= 	c #005700",
"- 	c #003C00",
"; 	c #005100",
"> 	c #005F00",
", 	c #00AD00",
"' 	c #005800",
") 	c #004200",
"! 	c #004B00",
"~ 	c #004E00",
"{ 	c #008E00",
"] 	c #005C00",
"^ 	c #003900",
"/ 	c #004000",
"( 	c #004A00",
"_ 	c #009000",
": 	c #002400",
"< 	c #004300",
"[ 	c #008D00",
"} 	c #008700",
"| 	c #002E00",
"1 	c #004100",
"2 	c #004F00",
"3 	c #00F100",
"4 	c #006600",
"5 	c #003500",
"6 	c #005400",
"7 	c #005500",
"8 	c #00A900",
"9 	c #00B700",
"0 	c #003200",
"a 	c #003700",
"b 	c #004800",
"c 	c #005600",
"d 	c #007600",
"e 	c #00F800",
"f 	c #00B100",
"g 	c #002C00",
"h 	c #003B00",
"i 	c #007500",
"j 	c #00FC00",
"k 	c #00BA00",
"l 	c #009B00",
"m 	c #002D00",
"n 	c #002700",
"o 	c #002B00",
"p 	c #004D00",
"q 	c #006F00",
"r 	c #00C900",
"s 	c #008000",
"t 	c #003100",
"u 	c #003800",
"v 	c #004600",
"w 	c #006900",
"x 	c #00B300",
"y 	c #00F700",
"z 	c #003400",
"A 	c #007A00",
"B 	c #007C00",
"C 	c #00C800",
"D 	c #007000",
"E 	c #007E00",
"F 	c #00A000",
"G 	c #003600",
"H 	c #006300",
"I 	c #006B00",
"J 	c #00AA00",
"K 	c #00B500",
"L 	c #00B600",
"M 	c #00C300",
"N 	c #00A100",
"O 	c #00DB00",
"P 	c #00DC00",
"Q 	c #00E100",
"R 	c #009300",
"S 	c #00C500",
"T 	c #00D800",
"U 	c #00C000",
"V 	c #007100",
"W 	c #00D900",
"X 	c #00B400",
"Y 	c #00EE00",
"Z 	c #00CB00",
"` 	c #00E900",
" .	c #00D700",
"..	c #00DA00",
"+.	c #00CE00",
"@.	c #00D000",
"#.	c #00F300",
"$.	c #00F200",
"%.	c #00A200",
"&.	c #00D500",
"*.	c #00F600",
"=.	c #00D600",
"-.	c #00E500",
";.	c #00D300",
". . . . . . . + @ # . . . . . . ",
". . . . . . $ % & * . . . . . . ",
". . . . . . = - ; > , . . . . . ",
". . . . . . ' ) ! ~ { . . . . . ",
". . . . . . ] ^ / ( _ . . . . . ",
". . . . . . ' : < ; [ . . . . . ",
". . . . . } | 1 2 @ } 3 . . . . ",
". . . . . 4 5 < 6 7 ] 8 . . . . ",
". . . . 9 ) 0 a - b c d + . . . ",
". e f / 0 g 0 2 < - h ~ i + j . ",
"k l m n o p q r s p t u v w x y ",
"z z % h ) A B C D E ] b ) ! 2 F ",
"G & H I J r K { L M N } , O P Q ",
". Q R S T U V p B W O X + . . . ",
". Y M r Z ` `  .T ` ..+.@.#.. . ",
"$.%.+.` &.` *.` =.-.P ;.+.Y . . "};
