/* XPM */
char * image_data[] = {
"16  16  257  2",
"  	c	None",
"!!	c #e7e6e6",
"@!	c #5c95fc",
"#!	c #dddcdc",
"$!	c #5290fc",
"%!	c #1f239c",
"^!	c #5a1373",
"&!	c #6296fb",
"*!	c #9f93ca",
"(!	c #8287aa",
")!	c #0c5df9",
"{!	c #5d357c",
"}!	c #403491",
"[!	c #223ac6",
"]!	c #1e40ed",
"|!	c #57326c",
"+!	c #391d94",
"=!	c #d3c8c1",
"-!	c #7b12be",
",!	c #6414a7",
".!	c #460790",
"<!	c #0d54f6",
">!	c #95aff4",
"/!	c #763094",
"?!	c #0c35d4",
";!	c #8b6566",
":!	c #45217e",
"a!	c #5053a3",
"b!	c #b09c9e",
"c!	c #134bf5",
"d!	c #0e4bf0",
"e!	c #cdcdce",
"f!	c #732a80",
"g!	c #175cf2",
"h!	c #e3e2e0",
"j!	c #f0f0f0",
"i!	c #eaeaea",
"k!	c #b9b4b0",
"l!	c #8e7772",
"m!	c #8c7570",
"n!	c #88aefa",
"o!	c #6213bb",
"p!	c #dadada",
"q!	c #816d65",
"r!	c #9a928e",
"s!	c #856c5f",
"t!	c #d8d8d8",
"u!	c #0f41e3",
"v!	c #d2d2d2",
"w!	c #d6d1cc",
"x!	c #d0d0d0",
"y!	c #3c7efb",
"z!	c #103af1",
"A!	c #c7a0ef",
"B!	c #cfd0e6",
"C!	c #7a666b",
"D!	c #233bd2",
"E!	c #bdb8d1",
"F!	c #1150f5",
"G!	c #72308b",
"H!	c #5f21d5",
"I!	c #ecebeb",
"J!	c #c1c2c4",
"K!	c #9c726b",
"L!	c #3f51a1",
"M!	c #f0c199",
"N!	c #5278ef",
"O!	c #3c379e",
"P!	c #4b0c8c",
"Q!	c #ebd2f7",
"R!	c #242ca4",
"S!	c #a27e77",
"T!	c #bfd5fd",
"U!	c #591089",
"V!	c #0c5ef9",
"W!	c #b3b7da",
"X!	c #535193",
"Y!	c #910ede",
"Z!	c #5015a1",
"0!	c #1f31d7",
"1!	c #b3aed0",
"2!	c #2a2eb0",
"3!	c #cac2c2",
"4!	c #775b6a",
"5!	c #f4f4f5",
"6!	c #f0f0f1",
"7!	c #4c58b0",
"8!	c #332bb2",
"9!	c #cbc6c6",
"!@	c #6360a2",
"@@	c #1f65f7",
"#@	c #dec6b4",
"$@	c #ede9e7",
"%@	c #bfa4ba",
"^@	c #0c59f8",
"&@	c #a98876",
"*@	c #5f94fa",
"(@	c #0d42ef",
")@	c #ffffff",
"{@	c #c5b0af",
"}@	c #7513c1",
"[@	c #f7f7f7",
"]@	c #f5f5f5",
"|@	c #214be8",
"+@	c #351da6",
"=@	c #b4a9a8",
"-@	c #687fd1",
",@	c #3f7cee",
".@	c #8b7c83",
"<@	c #fcfdff",
">@	c #ebebeb",
"/@	c #663d76",
"?@	c #1056f8",
";@	c #9713d5",
":@	c #661294",
"a@	c #dddddd",
"b@	c #531c81",
"c@	c #dbdbdb",
"d@	c #e1d8d7",
"e@	c #4f0a91",
"f@	c #0f19ab",
"g@	c #d7d7d7",
"h@	c #ddd6d3",
"j@	c #d5d5d5",
"i@	c #0c58f7",
"k@	c #e9d2f6",
"l@	c #5f1c90",
"m@	c #eef4fe",
"n@	c #cfcfcf",
"o@	c #1565f9",
"p@	c #3b1694",
"q@	c #4a52a9",
"r@	c #987764",
"s@	c #1f33c4",
"t@	c #cacbcd",
"u@	c #1a46e0",
"v@	c #bfd4f7",
"w@	c #76505d",
"x@	c #a2a4a9",
"y@	c #bdb6b3",
"z@	c #684342",
"A@	c #aaaec8",
"B@	c #391fb6",
"C@	c #fafafc",
"D@	c #714eed",
"E@	c #c3c5c6",
"F@	c #fbf6fd",
"G@	c #e8ddf1",
"H@	c #b68ed4",
"I@	c #000000",
"J@	c #000000",
"K@	c #000000",
"L@	c #000000",
"M@	c #000000",
"N@	c #000000",
"O@	c #000000",
"P@	c #000000",
"Q@	c #000000",
"R@	c #000000",
"S@	c #000000",
"T@	c #000000",
"U@	c #000000",
"V@	c #000000",
"W@	c #000000",
"X@	c #000000",
"Y@	c #000000",
"Z@	c #000000",
"0@	c #000000",
"1@	c #000000",
"2@	c #000000",
"3@	c #000000",
"4@	c #000000",
"5@	c #000000",
"6@	c #000000",
"7@	c #000000",
"8@	c #000000",
"9@	c #000000",
"!#	c #000000",
"@#	c #000000",
"##	c #000000",
"$#	c #000000",
"%#	c #000000",
"^#	c #000000",
"&#	c #000000",
"*#	c #000000",
"(#	c #000000",
")#	c #000000",
"{#	c #000000",
"}#	c #000000",
"[#	c #000000",
"]#	c #000000",
"|#	c #000000",
"+#	c #000000",
"=#	c #000000",
"-#	c #000000",
",#	c #000000",
".#	c #000000",
"<#	c #000000",
">#	c #000000",
"/#	c #000000",
"?#	c #000000",
";#	c #000000",
":#	c #000000",
"a#	c #000000",
"b#	c #000000",
"c#	c #000000",
"d#	c #000000",
"e#	c #000000",
"f#	c #000000",
"g#	c #000000",
"h#	c #000000",
"j#	c #000000",
"i#	c #000000",
"k#	c #000000",
"l#	c #000000",
"m#	c #000000",
"n#	c #000000",
"o#	c #000000",
"p#	c #000000",
"q#	c #000000",
"r#	c #000000",
"s#	c #000000",
"t#	c #000000",
"u#	c #000000",
"v#	c #000000",
"w#	c #000000",
"x#	c #000000",
"y#	c #000000",
"z#	c #000000",
"A#	c #000000",
"B#	c #000000",
"C#	c #000000",
"D#	c #000000",
"E#	c #000000",
"F#	c #000000",
"G#	c #000000",
"H#	c #000000",
"I#	c #000000",
"J#	c #000000",
"K#	c #000000",
"L#	c #000000",
"M#	c #000000",
"N#	c #000000",
"O#	c #000000",
"P#	c #000000",
"Q#	c #000000",
"R#	c #000000",
"S#	c #000000",
"T#	c #000000",
"U#	c #000000",
"V#	c #000000",
"W#	c #000000",
"X#	c #000000",
"Y#	c #000000",
"Z#	c #000000",
"0#	c #000000",
"1#	c #000000",

")@)@)@)@)@)@)@B!L!-@)@)@)@)@)@)@",
")@)@)@)@)@)@A@2!]!N!)@)@)@)@)@)@",
")@)@)@)@)@)@X!0!?@@@>!)@)@)@)@)@",
")@)@)@)@)@)@a!u!c!F!*@)@)@)@)@)@",
")@)@)@)@)@)@7!?!z!d!&!)@)@)@)@)@",
")@)@)@)@)@)@q@f@(@i@@!)@)@)@)@)@",
")@)@)@)@)@(!%![!<!^@$!m@)@)@)@)@",
")@)@)@)@)@!@R!D!)!V!o@n!)@)@)@)@",
")@)@)@)@W!O!+@B@s@u@g!y!T!)@)@)@",
")@C@1!}!+!P!U!/!}@o!8!|@,@v@<@)@",
"E!*!p@.!e@G!;!#@.@/@^!:@H!D@A!F@",
":!Z!,!l@|!m!K!M!s!r@w@f!-!Y!;@H@",
"b@{!4!C!=@=!{@&@y@3!b!S!%@k@Q!G@",
")@h!r!9!p!J!q!z@l!d@#!k!w!)@)@)@",
")@6!E@t@e!>@$@h@p!i!c@n@v!]@)@)@",
"5!x@x!i!g@I![@i!t!!!a@j@x!j!)@)@",
};

