/* XPM */
static char * s_wizard_xpm[] = {
"27 36 256 2",
"  	c None",
". 	c #05050B",
"+ 	c #C8C8C8",
"@ 	c #AFB2B5",
"# 	c #46866A",
"$ 	c #1012A5",
"% 	c #581F06",
"& 	c #7F05A9",
"* 	c #130738",
"= 	c #0D54F6",
"- 	c #175B35",
"; 	c #6E645A",
"> 	c #51230A",
", 	c #6804AA",
"' 	c #4A0C7A",
") 	c #F0F0F0",
"! 	c #0D2EA3",
"~ 	c #1F3933",
"{ 	c #592A11",
"] 	c #0D3B1D",
"^ 	c #482113",
"/ 	c #985ECC",
"( 	c #E9E8E8",
"_ 	c #540EA8",
": 	c #978778",
"< 	c #39088A",
"[ 	c #1A2630",
"} 	c #0E2EC7",
"| 	c #6252AA",
"1 	c #3F0D11",
"2 	c #4D3F37",
"3 	c #ECCEB0",
"4 	c #06180B",
"5 	c #5F4942",
"6 	c #EDBE95",
"7 	c #154CDF",
"8 	c #8754B3",
"9 	c #5D1D10",
"0 	c #E0E0E0",
"a 	c #4714AA",
"b 	c #071D6C",
"c 	c #CBA380",
"d 	c #76268A",
"e 	c #425CBB",
"f 	c #DFB58C",
"g 	c #3933CA",
"h 	c #95969B",
"i 	c #261E77",
"j 	c #7F43B9",
"k 	c #1144CD",
"l 	c #382014",
"m 	c #5E2216",
"n 	c #DADADA",
"o 	c #0A2E15",
"p 	c #34433E",
"q 	c #3812A7",
"r 	c #183073",
"s 	c #4C3639",
"t 	c #07156E",
"u 	c #977969",
"v 	c #335843",
"w 	c #693B9F",
"x 	c #5F4133",
"y 	c #092CE0",
"z 	c #5230A0",
"A 	c #2C56E2",
"B 	c #B9B5B3",
"C 	c #081C7F",
"D 	c #CECECE",
"E 	c #53826D",
"F 	c #802EC5",
"G 	c #B7987F",
"H 	c #3D795A",
"I 	c #5E221A",
"J 	c #240664",
"K 	c #0A25D3",
"L 	c #323232",
"M 	c #4A3723",
"N 	c #875363",
"O 	c #797D85",
"P 	c #466656",
"Q 	c #652F66",
"R 	c #6E92EA",
"S 	c #292114",
"T 	c #2B179F",
"U 	c #264AAD",
"V 	c #0B2A89",
"W 	c #503726",
"X 	c #8004CC",
"Y 	c #243B7F",
"Z 	c #A8A8AC",
"` 	c #49297F",
" .	c #590789",
"..	c #6B528B",
"+.	c #1136D9",
"@.	c #BDBDBD",
"#.	c #6428B5",
"$.	c #7F6358",
"%.	c #838787",
"&.	c #2156E7",
"*.	c #5A228E",
"=.	c #105028",
"-.	c #464A4A",
";.	c #2F73F3",
">.	c #344DD8",
",.	c #340E08",
"'.	c #081E0E",
").	c #9804ED",
"!.	c #2834B2",
"~.	c #1C2088",
"{.	c #68687E",
"].	c #1D20AE",
"^.	c #928AB3",
"/.	c #13118A",
"(.	c #49226D",
"_.	c #603A30",
":.	c #0B2681",
"<.	c #50301F",
"[.	c #E5C6AC",
"}.	c #0C45EE",
"|.	c #19246B",
"1.	c #0A62FC",
"2.	c #FEFEFD",
"3.	c #EDDBCD",
"4.	c #3E4646",
"5.	c #0F3CB1",
"6.	c #252E74",
"7.	c #571DE5",
"8.	c #2A2E1D",
"9.	c #391971",
"0.	c #1019A8",
"a.	c #665470",
"b.	c #0923C2",
"c.	c #2330CB",
"d.	c #1E3AE8",
"e.	c #FBFAFA",
"f.	c #0E4A25",
"g.	c #661BAD",
"h.	c #7E9D9A",
"i.	c #979CB8",
"j.	c #411C11",
"k.	c #347252",
"l.	c #DFD4CF",
"m.	c #0E3BC7",
"n.	c #251592",
"o.	c #416BF1",
"p.	c #B4AABC",
"q.	c #4C347C",
"r.	c #AF8769",
"s.	c #774E40",
"t.	c #1A0A6D",
"u.	c #D5B393",
"v.	c #2C2847",
"w.	c #CBBEB8",
"x.	c #2244DD",
"y.	c #4D1B7F",
"z.	c #323236",
"A.	c #D4D4D4",
"B.	c #5B3623",
"C.	c #3B3D31",
"D.	c #8088A6",
"E.	c #472F20",
"F.	c #0E34EE",
"G.	c #6A406C",
"H.	c #134DF5",
"I.	c #3E8AE6",
"J.	c #091D8E",
"K.	c #7414D0",
"L.	c #A69D96",
"M.	c #5F69A3",
"N.	c #7618AD",
"O.	c #6B0FD1",
"P.	c #1A2218",
"Q.	c #050E09",
"R.	c #1A56EB",
"S.	c #5A1A7C",
"T.	c #0D2F8E",
"U.	c #C1C2C3",
"V.	c #191912",
"W.	c #867365",
"X.	c #D7C8C6",
"Y.	c #3B35F3",
"Z.	c #1B3A27",
"`.	c #1D0F0B",
" +	c #655947",
".+	c #382C73",
"++	c #151E4D",
"@+	c #160F66",
"#+	c #0C36AD",
"$+	c #FAD8B8",
"%+	c #4B3A79",
"&+	c #0B22A2",
"*+	c #465664",
"=+	c #6C7382",
"-+	c #7674A4",
";+	c #183124",
">+	c #122067",
",+	c #0F4621",
"'+	c #133CF3",
")+	c #BBA997",
"!+	c #512A17",
"~+	c #2A6AE6",
"{+	c #3C1E8E",
"]+	c #343F74",
"^+	c #4C0C92",
"/+	c #724036",
"(+	c #296A46",
"_+	c #3A4B7C",
":+	c #A9B2CC",
"<+	c #5915CA",
"[+	c #B9B6D1",
"}+	c #8312DA",
"|+	c #9715D3",
"1+	c #3F281A",
"2+	c #602D22",
"3+	c #1B4B31",
"4+	c #FBCC9F",
"5+	c #938B94",
"6+	c #F6F6F6",
"7+	c #2642CB",
"8+	c #1E66FA",
"9+	c #14207B",
"0+	c #0C5DF9",
"a+	c #623981",
"b+	c #4C4A70",
"c+	c #9DA8C5",
"d+	c #261573",
"e+	c #73208C",
"f+	c #660EAE",
"g+	c #3246C0",
"h+	c #6D4B43",
"i+	c #5C167A",
"j+	c #9D9FA1",
"k+	c #0C25B4",
"l+	c #E2C09C",
"m+	c #082EF9",
"n+	c #526EA2",
"o+	c #C1C6DE",
"p+	c #102DB8",
"q+	c #1A30C5",
"r+	c #921CAC",
"s+	c #4A5685",
"t+	c #3A4EA2",
"u+	c #232D93",
"v+	c #66779F",
"w+	c #214CDB",
"x+	c #1C2850",
"y+	c #06266C",
"z+	c #1865F8",
"A+	c #492A1B",
"B+	c #082411",
"C+	c #1D43F4",
"D+	c #5E3AE2",
"E+	c #4F2417",
"F+	c #1F21D9",
"G+	c #6B057D",
"                          e                           ",
"                      |.F+H.                          ",
"                      i d.1.&.                        ",
"                      ~.}.H.0+                    2+  ",
"                      &+b.}.0+                    m   ",
"                      ~.$ 0+1.                    9   ",
"                      !.x.0+1.;.                  9   ",
"                      !.c.0+0+8+                  9   ",
"                    u+a a c.&.1.                  %   ",
"                ~.< , $.l.`  .G+Y.R             h+>   ",
"            .+{+g. .9.r.4+r.s i+).).            B.>   ",
"            y._ f+a+ +N 4+u u N K.|+8           <.>   ",
"                ; 0 ( A+1 X.( D                 M E+  ",
"                @ h 0 l.w.6+n +                 1+^   ",
"              O @.0 D 6+( ( 0 A.A.              ^ s   ",
"            Y j+A.n D ) l.@.) @.+               E.x   ",
"          r *+D ) ( n 6+@ h ( j+O n+        3.)+$.2   ",
"        y+#+o+@.D D ( + ) 0 Z + T.#+H.= <+f 4+r.f [.  ",
"        :.k :+A.0 ( 0 @.) 0 @ B y+V 7 k i+6 4+G c [.  ",
"        R.7 n+0 ( 6+@.D n ) B c+b b b y+' )+f W.r.u.  ",
"        7 7 h 0 D n D D n A.n h t t |.]+b+    l j.<.  ",
"        k k c++ [+( ( D n Z A.*+C y+          j.j.    ",
"        #+= 5.@ U.( A.@ e.D D.6.&+t           > ^     ",
"        V 7 q+z X.( + + ( 0 b+C &+t           > {     ",
"        i  .n.g+D ) @ A.U.@ 9+&+y b.          > E+    ",
"        '  .! C+:+) U.D A.Z t k+y b.        2 % B.    ",
"          i F.'+s+A.0 @.0 O t q+y $         1+j.      ",
"          t p+!._+U.U.D D b C } } b         > 5       ",
"          t 9+++Y @.B D U.t J.b.q+C       W >         ",
"          C t T.r B @.+ U.t J.b.+.t       <.>         ",
"        &+K '+c.T D.+ @.6.t b &+m+K       j.E+        ",
"        b.F.Y.}+}+z p.^._ }+f+n.k+b..+    > E.        ",
"  3+[ < t.^+* `.{.O 5+%+-+h a.< J f+< [ M l E.h.      ",
"  f.o '.4 * Q.Q.3+P 4.;+=+O 2 . P.4 B+v 4 o =.        ",
"  ] o o Q.o B+Q.. 4 . Q.. . Q.V.4 o ] ] =.- (+        ",
"                      B+B+v                           "};
