/* XPM */
static char * xs_wizard_xpm[] = {
"16 21 170 2",
"  	c None",
". 	c #2938B1",
"+ 	c #173EDC",
"@ 	c #1357F4",
"# 	c #0F35D8",
"$ 	c #0F54F4",
"% 	c #6C392F",
"& 	c #222786",
"* 	c #163BD1",
"= 	c #0D5EFA",
"- 	c #241D95",
"; 	c #2734C8",
"> 	c #1557EF",
", 	c #340D89",
"' 	c #622186",
") 	c #9460A0",
"! 	c #572097",
"~ 	c #443ED1",
"{ 	c #57218F",
"] 	c #6A3A83",
"^ 	c #A28A88",
"/ 	c #B89985",
"( 	c #9A7E7C",
"_ 	c #813398",
": 	c #9513D8",
"< 	c #512B17",
"[ 	c #B9B5B4",
"} 	c #C6C0BF",
"| 	c #96807C",
"1 	c #DDD9D9",
"2 	c #B5ACA6",
"3 	c #482A1A",
"4 	c #A3A6AC",
"5 	c #E3E3E3",
"6 	c #EAE9E9",
"7 	c #E4E3E2",
"8 	c #E0E0E0",
"9 	c #D1D1D1",
"0 	c #49281E",
"a 	c #223D82",
"b 	c #B4B7BE",
"c 	c #DCDCDC",
"d 	c #D5D4D3",
"e 	c #C8C8C9",
"f 	c #ABAEB7",
"g 	c #3A5FBD",
"h 	c #EBCDB3",
"i 	c #8F7662",
"j 	c #102B7D",
"k 	c #3051B1",
"l 	c #CACBD1",
"m 	c #DDDDDD",
"n 	c #E1E1E1",
"o 	c #DFDFDF",
"p 	c #C7C7C8",
"q 	c #8590B3",
"r 	c #0E39B5",
"s 	c #2140D1",
"t 	c #A3559E",
"u 	c #E3BB97",
"v 	c #CCA788",
"w 	c #1142C6",
"x 	c #2853BF",
"y 	c #CDD0D7",
"z 	c #E8E8E8",
"A 	c #D0D0CF",
"B 	c #CBCACB",
"C 	c #CECDCF",
"D 	c #505F8F",
"E 	c #081F70",
"F 	c #1D2678",
"G 	c #8A538A",
"H 	c #AD8A71",
"I 	c #9A785E",
"J 	c #0F3AB3",
"K 	c #2D51BB",
"L 	c #BCBCC5",
"M 	c #E1E0E1",
"N 	c #D9D8D8",
"O 	c #CDCDCD",
"P 	c #ADAFB5",
"Q 	c #1C2D7D",
"R 	c #0E236A",
"S 	c #411E12",
"T 	c #0C2C91",
"U 	c #1944D7",
"V 	c #847CB5",
"W 	c #E4E3E3",
"X 	c #CACACB",
"Y 	c #D3D3D4",
"Z 	c #8589A7",
"` 	c #0E2596",
" .	c #0E1B68",
"..	c #543C30",
"+.	c #51250F",
"@.	c #281F78",
"#.	c #4F17A0",
"$.	c #6261BD",
"%.	c #D8D8D9",
"&.	c #D6D7D8",
"*.	c #D1D1D2",
"=.	c #576099",
"-.	c #0C2CC7",
";.	c #0C23A0",
">.	c #503423",
",.	c #542712",
"'.	c #1F28A7",
").	c #2E4ACC",
"!.	c #C3C4CB",
"~.	c #CFCFD0",
"{.	c #323C83",
"].	c #0E2FE0",
"^.	c #0A1A8A",
"/.	c #4B2716",
"(.	c #0A1B79",
"_.	c #1E3082",
":.	c #B2B4B8",
"<.	c #BFBEBE",
"[.	c #888DAB",
"}.	c #081C86",
"|.	c #0E2EDA",
"1.	c #0C1E7B",
"2.	c #54260F",
"3.	c #14287D",
"4.	c #0A26C0",
"5.	c #192DB4",
"6.	c #86879E",
"7.	c #BFC0C0",
"8.	c #53588D",
"9.	c #08197C",
"0.	c #0C2DD8",
"a.	c #0C1F9F",
"b.	c #532E1D",
"c.	c #563425",
"d.	c #2B4353",
"e.	c #19168D",
"f.	c #2922C0",
"g.	c #4E239F",
"h.	c #775FA4",
"i.	c #726C8A",
"j.	c #66419D",
"k.	c #6534A2",
"l.	c #2A159F",
"m.	c #4212B7",
"n.	c #452A62",
"o.	c #482918",
"p.	c #553D31",
"q.	c #132D28",
"r.	c #11162E",
"s.	c #191238",
"t.	c #182221",
"u.	c #42564E",
"v.	c #2F363D",
"w.	c #535665",
"x.	c #4A4550",
"y.	c #231846",
"z.	c #272145",
"A.	c #1E3231",
"B.	c #18331C",
"C.	c #2B5039",
"D.	c #0B3318",
"E.	c #071D0E",
"F.	c #07190D",
"G.	c #0B170E",
"H.	c #071A0D",
"I.	c #12261A",
"J.	c #071B0E",
"K.	c #122B1C",
"L.	c #0A1C10",
"M.	c #082311",
"              .                 ",
"              + @               ",
"              # $             % ",
"            & * =               ",
"            - ; >               ",
"          , ' ) ! ~             ",
"        { ] ^ / ( _ :       <   ",
"          [ } | 1 2         3   ",
"        4 5 6 7 8 9         0   ",
"      a b 9 c d e f g     h i   ",
"    j k l m n o p q r s t u v   ",
"    w x y z A B C D E F G H I   ",
"    J K L M N O P Q R       S   ",
"    T U V W X Y Z `  .    ..+.  ",
"    @.#.$.%.&.*.=.-.;.    >.,.  ",
"      '.).!.9 ~.{.].^.    /.    ",
"      (._.:.<.[.}.|.1.    2.    ",
"    3.4.5.6.7.8.9.0.a.  b.c.    ",
"  d.e.f.g.h.i.j.k.l.m.n.o.p.    ",
"  q.r.s.t.u.v.w.x.y.z.A.B.C.    ",
"  D.E.F.G.H.I.J.K.L.M.          "};
